 <svg xmlns="http://www.w3.org/2000/svg">

    <!-- Navbar logo (HooBank) -->
    <symbol id="navbar-logo" viewBox="0 0 266 73">
     	<path d="M107.487 29.2599V57.9067H101.725V45.4498H89.4707V57.9067H83.7494V29.2599H89.4707V40.8647H101.725V29.2599H107.487ZM123.063 35.1434C125.255 35.1434 127.216 35.6033 128.947 36.523C130.705 37.4428 132.085 38.7818 133.086 40.5401C134.087 42.2713 134.587 44.3137 134.587 46.6671C134.587 49.0205 134.087 51.0629 133.086 52.7941C132.085 54.5254 130.705 55.8644 128.947 56.8112C127.216 57.7309 125.255 58.1908 123.063 58.1908C120.872 58.1908 118.898 57.7309 117.139 56.8112C115.408 55.8644 114.042 54.5254 113.041 52.7941C112.04 51.0629 111.54 49.0205 111.54 46.6671C111.54 44.3137 112.04 42.2713 113.041 40.5401C114.042 38.7818 115.408 37.4428 117.139 36.523C118.898 35.6033 120.872 35.1434 123.063 35.1434ZM123.063 40.0938C121.467 40.0938 120.115 40.6618 119.006 41.798C117.897 42.907 117.342 44.5301 117.342 46.6671C117.342 48.8041 117.897 50.4407 119.006 51.5768C120.115 52.6859 121.467 53.2405 123.063 53.2405C124.659 53.2405 126.012 52.6859 127.121 51.5768C128.23 50.4407 128.785 48.8041 128.785 46.6671C128.785 44.5301 128.23 42.907 127.121 41.798C126.012 40.6618 124.659 40.0938 123.063 40.0938ZM149.018 35.1434C151.209 35.1434 153.17 35.6033 154.901 36.523C156.66 37.4428 158.039 38.7818 159.04 40.5401C160.041 42.2713 160.542 44.3137 160.542 46.6671C160.542 49.0205 160.041 51.0629 159.04 52.7941C158.039 54.5254 156.66 55.8644 154.901 56.8112C153.17 57.7309 151.209 58.1908 149.018 58.1908C146.827 58.1908 144.852 57.7309 143.094 56.8112C141.363 55.8644 139.996 54.5254 138.996 52.7941C137.995 51.0629 137.494 49.0205 137.494 46.6671C137.494 44.3137 137.995 42.2713 138.996 40.5401C139.996 38.7818 141.363 37.4428 143.094 36.523C144.852 35.6033 146.827 35.1434 149.018 35.1434ZM149.018 40.0938C147.422 40.0938 146.069 40.6618 144.96 41.798C143.851 42.907 143.297 44.5301 143.297 46.6671C143.297 48.8041 143.851 50.4407 144.96 51.5768C146.069 52.6859 147.422 53.2405 149.018 53.2405C150.614 53.2405 151.966 52.6859 153.076 51.5768C154.185 50.4407 154.739 48.8041 154.739 46.6671C154.739 44.5301 154.185 42.907 153.076 41.798C151.966 40.6618 150.614 40.0938 149.018 40.0938Z" fill="white"/>
		  <path d="M180.572 43.137C182.303 43.4886 183.683 44.3137 184.711 45.6121C185.766 46.8835 186.293 48.3848 186.293 50.1161C186.293 52.5236 185.482 54.4307 183.859 55.8373C182.263 57.2169 179.936 57.9067 176.88 57.9067H164.585V29.2599H176.636C179.531 29.2599 181.749 29.8956 183.291 31.167C184.86 32.4384 185.644 34.2237 185.644 36.523C185.644 38.3084 185.171 39.7691 184.224 40.9053C183.304 42.0414 182.087 42.7853 180.572 43.137ZM170.306 41.2705H175.459C176.893 41.2705 177.975 40.9594 178.706 40.3372C179.463 39.688 179.842 38.7683 179.842 37.578C179.842 36.3878 179.476 35.4681 178.746 34.8188C178.016 34.1696 176.893 33.845 175.378 33.845H170.306V41.2705ZM175.743 53.2405C177.258 53.2405 178.421 52.9159 179.233 52.2666C180.045 51.5904 180.45 50.6165 180.45 49.3451C180.45 48.0738 180.031 47.0999 179.192 46.4237C178.381 45.7203 177.218 45.3687 175.703 45.3687H170.306V53.2405H175.743ZM199.107 35.1434C201 35.1434 202.623 35.5898 203.976 36.4825C205.329 37.3751 206.289 38.5789 206.857 40.0938V35.4275H212.538V57.9067H206.857V53.1999C206.289 54.7147 205.329 55.932 203.976 56.8518C202.623 57.7444 201 58.1908 199.107 58.1908C197.213 58.1908 195.509 57.7309 193.994 56.8112C192.479 55.8915 191.289 54.566 190.423 52.8347C189.585 51.0764 189.166 49.0205 189.166 46.6671C189.166 44.3137 189.585 42.2713 190.423 40.5401C191.289 38.7818 192.479 37.4428 193.994 36.523C195.509 35.6033 197.213 35.1434 199.107 35.1434ZM200.892 40.1343C199.107 40.1343 197.673 40.7159 196.591 41.8791C195.509 43.0423 194.968 44.6383 194.968 46.6671C194.968 48.6959 195.509 50.2919 196.591 51.4551C197.673 52.5912 199.107 53.1593 200.892 53.1593C202.623 53.1593 204.044 52.5777 205.153 51.4145C206.289 50.2243 206.857 48.6418 206.857 46.6671C206.857 44.6653 206.289 43.0829 205.153 41.9197C204.044 40.7294 202.623 40.1343 200.892 40.1343ZM231.113 35.1029C233.709 35.1029 235.779 35.955 237.321 37.6592C238.863 39.3634 239.634 41.7574 239.634 44.8412V57.9067H233.953V45.4904C233.953 43.705 233.493 42.3254 232.573 41.3516C231.654 40.3507 230.396 39.8503 228.8 39.8503C227.177 39.8503 225.878 40.3778 224.904 41.4328C223.931 42.4878 223.444 44.0026 223.444 45.9773V57.9067H217.722V35.4275H223.444V39.9314C224.039 38.4166 225.013 37.2399 226.365 36.4013C227.745 35.5357 229.327 35.1029 231.113 35.1029ZM257.814 57.9067L250.389 48.0873V57.9067H244.668V27.8803H250.389V44.76L257.774 35.4275H264.55L255.096 46.6265L264.793 57.9067H257.814Z" fill="#5CE1E6"/>
		  <path d="M36.0678 0C28.9343 -8.50666e-08 21.9609 2.11534 16.0296 6.07852C10.0983 10.0417 5.47539 15.6747 2.7455 22.2652C0.0156126 28.8558 -0.698651 36.1078 0.693031 43.1043C2.08471 50.1007 5.51984 56.5274 10.564 61.5716C15.6082 66.6157 22.0348 70.0509 29.0313 71.4426C36.0278 72.8342 43.2798 72.12 49.8703 69.3901C56.4609 66.6602 62.0939 62.0373 66.0571 56.106C70.0202 50.1747 72.1356 43.2013 72.1356 36.0678L54.1017 36.0678C54.1017 39.6346 53.044 43.1212 51.0624 46.0869C49.0808 49.0526 46.2643 51.364 42.9691 52.7289C39.6738 54.0939 36.0478 54.451 32.5496 53.7552C29.0513 53.0593 25.838 51.3418 23.3159 48.8197C20.7938 46.2976 19.0763 43.0843 18.3804 39.586C17.6846 36.0878 18.0417 32.4618 19.4066 29.1665C20.7716 25.8713 23.083 23.0547 26.0487 21.0732C29.0144 19.0916 32.501 18.0339 36.0678 18.0339L36.0678 0Z" fill="white"/>
		  <path d="M36.0678 0C31.3313 -5.64821e-08 26.6412 0.932921 22.2652 2.7455C17.8893 4.55807 13.9132 7.21481 10.564 10.564C7.21481 13.9132 4.55807 17.8893 2.7455 22.2653C0.93292 26.6412 -7.1519e-07 31.3313 0 36.0678L18.0339 36.0678C18.0339 33.6996 18.5004 31.3545 19.4066 29.1665C20.3129 26.9785 21.6413 24.9905 23.3159 23.3159C24.9905 21.6413 26.9785 20.3129 29.1665 19.4066C31.3545 18.5004 33.6995 18.0339 36.0678 18.0339L36.0678 0Z" fill="#5CE1E6"/>
		  <circle cx="36.0678" cy="36.0678" r="11.2712" fill="#5CE1E6"/>
		  <path d="M47.339 36.0678C47.339 34.5877 47.0475 33.122 46.481 31.7545C45.9146 30.387 45.0844 29.1445 44.0377 28.0979C42.9911 27.0513 41.7486 26.221 40.3811 25.6546C39.0136 25.0882 37.548 24.7966 36.0678 24.7966C34.5876 24.7966 33.122 25.0882 31.7545 25.6546C30.387 26.221 29.1445 27.0513 28.0979 28.0979C27.0512 29.1445 26.221 30.387 25.6546 31.7545C25.0882 33.122 24.7966 34.5877 24.7966 36.0678L36.0678 36.0678H47.339Z" fill="white"/>
    </symbol>
		


		<!-- Main section (percent) -->
		 <symbol id="percent" viewBox="0 0 32 32">
     	<path opacity="0.4" d="M15.9988 29.331C14.9735 29.331 13.9495 28.9417 13.1668 28.1643L12.1935 27.191C11.8161 26.815 11.3108 26.607 10.7748 26.6057H9.40546C7.19212 26.6057 5.39079 24.8043 5.39079 22.591V21.2203C5.38946 20.6857 5.18146 20.1803 4.80412 19.8003L3.84679 18.8443C2.27879 17.2857 2.27212 14.7377 3.83212 13.1683L4.80546 12.1937C5.18146 11.8163 5.38946 11.311 5.39079 10.775V9.40699C5.39079 7.19232 7.19212 5.39099 9.40546 5.39099H10.7761C11.3108 5.39099 11.8148 5.18299 12.1948 4.80299L13.1535 3.84699C14.7121 2.27899 17.2588 2.27099 18.8295 3.83232L19.8028 4.80565C20.1815 5.18299 20.6855 5.39099 21.2201 5.39099H22.5908C24.8041 5.39099 26.6055 7.19232 26.6055 9.40699V10.7763C26.6068 11.311 26.8148 11.8163 27.1921 12.1963L28.1495 13.1537C28.9081 13.9083 29.3281 14.9137 29.3321 15.987C29.3348 17.0537 28.9241 18.0577 28.1761 18.8163C28.1628 18.8297 28.1508 18.8443 28.1375 18.8563L27.1908 19.803C26.8148 20.1803 26.6068 20.6857 26.6055 21.2217V22.591C26.6055 24.8043 24.8041 26.6057 22.5908 26.6057H21.2201C20.6855 26.607 20.1801 26.815 19.8015 27.1923L18.8428 28.1497C18.0615 28.9363 17.0295 29.331 15.9988 29.331" fill="#393939"/>
			<path fill-rule="evenodd" clip-rule="evenodd" d="M13.3904 13.4012C13.1704 13.6212 12.8851 13.7399 12.5691 13.7399C12.2731 13.7399 11.9824 13.6186 11.7491 13.3999C11.5277 13.1799 11.4024 12.8786 11.4024 12.5732C11.4024 12.2826 11.5251 11.9839 11.7411 11.7532C11.8597 11.6332 12.0011 11.5426 12.1424 11.4946C12.5451 11.3106 13.0797 11.4186 13.3971 11.7519C13.5104 11.8652 13.5971 11.9892 13.6544 12.1186C13.7171 12.2572 13.7491 12.4146 13.7491 12.5732C13.7491 12.8906 13.6224 13.1852 13.3904 13.4012ZM20.254 11.7464C19.7993 11.2931 19.0593 11.2931 18.6047 11.7464L11.7513 18.5998C11.2967 19.0544 11.2967 19.7944 11.7513 20.2504C11.9727 20.4704 12.2647 20.5918 12.5767 20.5918C12.8887 20.5918 13.1807 20.4704 13.4007 20.2504L20.254 13.3971C20.7087 12.9411 20.7087 12.2024 20.254 11.7464ZM19.8744 18.3519C19.4424 18.1706 18.9304 18.2692 18.5891 18.6106C18.5184 18.6932 18.4184 18.8212 18.3504 18.9719C18.2784 19.1346 18.2691 19.3092 18.2691 19.4266C18.2691 19.5439 18.2784 19.7172 18.3504 19.8799C18.4171 20.0292 18.4971 20.1506 18.6024 20.2559C18.8437 20.4799 19.1237 20.5932 19.4357 20.5932C19.7317 20.5932 20.0224 20.4732 20.2611 20.2506C20.4731 20.0386 20.5891 19.7452 20.5891 19.4266C20.5891 19.1066 20.4731 18.8146 20.2597 18.6012C20.1424 18.4852 20.0011 18.3946 19.8744 18.3519Z" fill="#00F6FF"/>
    </symbol>

		<!-- Main section buttonCircle (arrow) -->
		<symbol id="arrow-up-right" viewBox="0 0 22 21">
			<path d="M4.98978 15.2615C4.75588 14.9828 4.76972 14.5786 5.00787 14.3167L5.07837 14.2489L16.0903 5.00887C16.3943 4.75371 16.8477 4.79338 17.1029 5.09746C17.3367 5.37621 17.3229 5.78038 17.0848 6.04234L17.0143 6.11006L6.00238 15.3501C5.69829 15.6053 5.24494 15.5656 4.98978 15.2615Z"/>
			<path d="M8.33877 5.57975C7.94325 5.546 7.64998 5.19801 7.68372 4.8025C7.7144 4.44294 8.00478 4.16787 8.35448 4.14619L8.46097 4.14745L16.6132 4.843C16.9739 4.87377 17.2493 5.16571 17.2697 5.51648L17.268 5.62327L16.538 13.7732C16.5026 14.1686 16.1534 14.4604 15.758 14.425C15.3986 14.3928 15.1247 14.1012 15.1045 13.7514L15.1062 13.645L15.7714 6.21386L8.33877 5.57975Z"/>
		</symbol>

			<!-- Feature1 section buttonDefault (github) -->
		<symbol id="github" viewBox="0 0 24 24">
			<path d="M8.02742 18.8419C8.02742 18.9387 7.91613 19.0161 7.77581 19.0161C7.61613 19.0306 7.50484 18.9532 7.50484 18.8419C7.50484 18.7452 7.61613 18.6677 7.75645 18.6677C7.90161 18.6532 8.02742 18.7306 8.02742 18.8419ZM6.52258 18.6242C6.48871 18.721 6.58548 18.8323 6.73065 18.8613C6.85645 18.9097 7.00161 18.8613 7.03064 18.7645C7.05968 18.6677 6.96774 18.5565 6.82258 18.5129C6.69677 18.479 6.55645 18.5274 6.52258 18.6242ZM8.66129 18.5419C8.52097 18.5758 8.42419 18.6677 8.43871 18.779C8.45323 18.8758 8.57903 18.9387 8.72419 18.9048C8.86452 18.871 8.96129 18.779 8.94677 18.6823C8.93226 18.5903 8.80161 18.5274 8.66129 18.5419ZM11.8452 0C5.13387 0 0 5.09516 0 11.8065C0 17.1726 3.37742 21.7645 8.20161 23.3806C8.82097 23.4919 9.03871 23.1097 9.03871 22.7952C9.03871 22.4952 9.02419 20.8403 9.02419 19.8242C9.02419 19.8242 5.6371 20.55 4.92581 18.3823C4.92581 18.3823 4.37419 16.9742 3.58065 16.6113C3.58065 16.6113 2.47258 15.8516 3.65806 15.8661C3.65806 15.8661 4.8629 15.9629 5.52581 17.1145C6.58548 18.9823 8.36129 18.4452 9.05323 18.1258C9.16452 17.3516 9.47903 16.8145 9.82742 16.4952C7.12258 16.1952 4.39355 15.8032 4.39355 11.1484C4.39355 9.81774 4.76129 9.15 5.53548 8.29839C5.40968 7.98387 4.99839 6.6871 5.66129 5.0129C6.67258 4.69839 9 6.31936 9 6.31936C9.96774 6.04839 11.0081 5.90806 12.0387 5.90806C13.0694 5.90806 14.1097 6.04839 15.0774 6.31936C15.0774 6.31936 17.4048 4.69355 18.4161 5.0129C19.079 6.69194 18.6677 7.98387 18.5419 8.29839C19.3161 9.15484 19.7903 9.82258 19.7903 11.1484C19.7903 15.8177 16.9403 16.1903 14.2355 16.4952C14.6806 16.8774 15.0581 17.6032 15.0581 18.7403C15.0581 20.371 15.0435 22.3887 15.0435 22.7855C15.0435 23.1 15.2661 23.4823 15.8806 23.371C20.7194 21.7645 24 17.1726 24 11.8065C24 5.09516 18.5565 0 11.8452 0ZM4.70323 16.6887C4.64032 16.7371 4.65484 16.8484 4.7371 16.9403C4.81452 17.0177 4.92581 17.0516 4.98871 16.9887C5.05161 16.9403 5.0371 16.829 4.95484 16.7371C4.87742 16.6597 4.76613 16.6258 4.70323 16.6887ZM4.18064 16.2968C4.14677 16.3597 4.19516 16.4371 4.29194 16.4855C4.36935 16.5339 4.46613 16.5194 4.5 16.4516C4.53387 16.3887 4.48548 16.3113 4.38871 16.2629C4.29194 16.2339 4.21452 16.2484 4.18064 16.2968ZM5.74839 18.0194C5.67097 18.0823 5.7 18.2274 5.81129 18.3194C5.92258 18.4306 6.0629 18.4452 6.12581 18.3677C6.18871 18.3048 6.15968 18.1597 6.0629 18.0677C5.95645 17.9565 5.81129 17.9419 5.74839 18.0194ZM5.19677 17.3081C5.11935 17.3565 5.11935 17.4823 5.19677 17.5935C5.27419 17.7048 5.40484 17.7532 5.46774 17.7048C5.54516 17.6419 5.54516 17.5161 5.46774 17.4048C5.4 17.2935 5.27419 17.2452 5.19677 17.3081Z" fill="black"/>
		</symbol>

		<!-- Feature component (star) -->
		<symbol id="star" viewBox="0 0 33 32">
			<path d="M25.4696 19.7122C25.0552 20.1138 24.8648 20.6946 24.9592 21.2642L26.3816 29.1362C26.5016 29.8034 26.22 30.4786 25.6616 30.8642C25.1144 31.2642 24.3864 31.3122 23.7896 30.9922L16.7032 27.2962C16.4568 27.165 16.1832 27.0946 15.9032 27.0866H15.4696C15.3192 27.109 15.172 27.157 15.0376 27.2306L7.94959 30.9442C7.59919 31.1202 7.20239 31.1826 6.81359 31.1202C5.86639 30.941 5.23439 30.0386 5.38959 29.0866L6.81359 21.2146C6.90799 20.6402 6.71759 20.0562 6.30319 19.6482L0.525591 14.0482C0.042391 13.5794 -0.125609 12.8754 0.095191 12.2402C0.309591 11.6066 0.856791 11.1442 1.51759 11.0402L9.46959 9.88663C10.0744 9.82423 10.6056 9.45623 10.8776 8.91223L14.3816 1.72823C14.4648 1.56823 14.572 1.42103 14.7016 1.29623L14.8456 1.18423C14.9208 1.10103 15.0072 1.03223 15.1032 0.976232L15.2776 0.912232L15.5496 0.800232H16.2232C16.8248 0.862632 17.3544 1.22263 17.6312 1.76023L21.1816 8.91223C21.4376 9.43543 21.9352 9.79863 22.5096 9.88663L30.4616 11.0402C31.1336 11.1362 31.6952 11.6002 31.9176 12.2402C32.1272 12.8818 31.9464 13.5858 31.4536 14.0482L25.4696 19.7122Z" fill="#00F6FF"/>
		</symbol>

			<!-- Feature component (shield) -->
		<symbol id="shield" viewBox="0 0 28 32">
			<path fill-rule="evenodd" clip-rule="evenodd" d="M13.5649 31.8619C13.7421 31.9544 13.9402 32.0015 14.1384 31.9999C14.3365 31.9984 14.533 31.9497 14.7118 31.8556L20.4204 28.8039C22.0392 27.941 23.3069 26.9761 24.2959 25.8527C26.4463 23.4051 27.6206 20.2813 27.5997 17.0602L27.532 6.43517C27.5256 5.21138 26.7218 4.11938 25.533 3.72243L14.9131 0.159303C14.2737 -0.0572148 13.573 -0.0525079 12.9448 0.170286L2.36516 3.8605C1.18284 4.27314 0.393559 5.37298 0.400003 6.59834L0.467655 17.2155C0.488595 20.4413 1.70312 23.551 3.88895 25.9735C4.88764 27.0812 6.1666 28.032 7.80315 28.8808L13.5649 31.8619ZM12.0537 19.3743C12.2921 19.6034 12.6014 19.7163 12.9106 19.7132C13.2199 19.7116 13.5276 19.5955 13.7627 19.3633L20.0013 13.213C20.47 12.7501 20.4652 12.0064 19.9916 11.5498C19.5164 11.0933 18.7513 11.0964 18.2826 11.5593L12.8929 16.8718L10.6861 14.7505C10.211 14.294 9.44745 14.2987 8.9771 14.7615C8.50837 15.2244 8.5132 15.9681 8.98838 16.4246L12.0537 19.3743Z" fill="#00F6FF"/>
		</symbol>

			<!-- Feature component (telegram) -->
		<symbol id="telegram" viewBox="0 0 33 32">
			<path d="M31.4966 0.931172C30.6963 0.109757 29.5118 -0.196261 28.4074 0.125863L2.65282 7.61524C1.48754 7.93897 0.661604 8.8683 0.439113 10.0489C0.21182 11.2504 1.00574 12.7757 2.04297 13.4135L10.0959 18.3629C10.9218 18.8702 11.9878 18.743 12.6713 18.0537L21.8927 8.77488C22.3569 8.2917 23.1252 8.2917 23.5894 8.77488C24.0536 9.24196 24.0536 9.99895 23.5894 10.4821L14.352 19.7625C13.6669 20.4503 13.5389 21.5213 14.0431 22.3524L18.9635 30.486C19.5397 31.4524 20.5321 32 21.6206 32C21.7486 32 21.8927 32 22.0207 31.9839C23.2693 31.8228 24.2617 30.9692 24.6298 29.7612L32.2649 4.03967C32.6011 2.94445 32.297 1.75259 31.4966 0.931172" fill="#00F6FF"/>
		</symbol>

		

</svg>
